<svg width="36" height="36" viewBox="0 0 36 36" fill="none" xmlns="http://www.w3.org/2000/svg">
<g filter="url(#filter0_d_5718_10838)">
<rect x="2" y="1" width="32" height="32" rx="8" fill="white" shape-rendering="crispEdges"/>
<rect x="2.5" y="1.5" width="31" height="31" rx="7.5" stroke="#DFE1E6" shape-rendering="crispEdges"/>
<path d="M18.0026 17.6663C17.6344 17.6663 17.3359 17.3679 17.3359 16.9997C17.3359 16.6315 17.6344 16.333 18.0026 16.333C18.3708 16.333 18.6693 16.6315 18.6693 16.9997C18.6693 17.3679 18.3708 17.6663 18.0026 17.6663Z" stroke="#808897" stroke-width="2"/>
<path d="M18.0026 13.6663C17.6344 13.6663 17.3359 13.3679 17.3359 12.9997C17.3359 12.6315 17.6344 12.333 18.0026 12.333C18.3708 12.333 18.6693 12.6315 18.6693 12.9997C18.6693 13.3679 18.3708 13.6663 18.0026 13.6663Z" stroke="#808897" stroke-width="2"/>
<path d="M18.0026 21.6663C17.6344 21.6663 17.3359 21.3679 17.3359 20.9997C17.3359 20.6315 17.6344 20.333 18.0026 20.333C18.3708 20.333 18.6693 20.6315 18.6693 20.9997C18.6693 21.3679 18.3708 21.6663 18.0026 21.6663Z" stroke="#808897" stroke-width="2"/>
</g>
<defs>
<filter id="filter0_d_5718_10838" x="0" y="0" width="36" height="36" filterUnits="userSpaceOnUse" color-interpolation-filters="sRGB">
<feFlood flood-opacity="0" result="BackgroundImageFix"/>
<feColorMatrix in="SourceAlpha" type="matrix" values="0 0 0 0 0 0 0 0 0 0 0 0 0 0 0 0 0 0 127 0" result="hardAlpha"/>
<feOffset dy="1"/>
<feGaussianBlur stdDeviation="1"/>
<feComposite in2="hardAlpha" operator="out"/>
<feColorMatrix type="matrix" values="0 0 0 0 0.0509804 0 0 0 0 0.0509804 0 0 0 0 0.0705882 0 0 0 0.06 0"/>
<feBlend mode="normal" in2="BackgroundImageFix" result="effect1_dropShadow_5718_10838"/>
<feBlend mode="normal" in="SourceGraphic" in2="effect1_dropShadow_5718_10838" result="shape"/>
</filter>
</defs>
</svg>
